<svg xmlns="http://www.w3.org/2000/svg" viewBox="0 0 16 16"><defs><style>.cls-1{isolation:isolate;}.cls-2{fill:#e25a44;}.cls-3,.cls-4{fill:#fcf5eb;}.cls-11,.cls-4{mix-blend-mode:multiply;}.cls-5{fill:#f47458;}.cls-6{fill:#184655;}.cls-14,.cls-7{fill:#86b1f2;}.cls-10,.cls-8,.cls-9{fill:#fff;}.cls-8{opacity:0.5;}.cls-8,.cls-9{mix-blend-mode:overlay;}.cls-9{opacity:0.2;}.cls-11{fill:#f7cc7f;opacity:0.3;}.cls-12{fill:#01b181;}.cls-13{fill:#a62184;}.cls-14{font-size:0.75px;font-family:Poppins-Bold, Poppins;font-weight:700;}</style></defs><g class="cls-1"><g id="Layer_1" data-name="Layer 1"><rect class="cls-2" x="11.81" y="2.3" width="0.07" height="0.45"/><rect class="cls-2" x="11.29" y="2.3" width="0.07" height="0.45"/><rect class="cls-2" x="10.77" y="2.3" width="0.07" height="0.45"/><rect class="cls-2" x="10.25" y="2.3" width="0.07" height="0.45"/><rect class="cls-3" x="11.88" y="6.26" width="0.61" height="7.52"/><rect class="cls-2" x="9.73" y="2.3" width="0.07" height="0.45"/><rect class="cls-2" x="9.21" y="2.3" width="0.07" height="0.45"/><rect class="cls-2" x="8.68" y="2.3" width="0.07" height="0.45"/><rect class="cls-2" x="8.16" y="2.3" width="0.07" height="0.45"/><rect class="cls-3" x="5.07" y="2.24" width="2.62" height="0.45"/><rect class="cls-4" x="11.86" y="3.25" width="0.5" height="2.47" transform="translate(24.23 8.97) rotate(180)"/><rect class="cls-3" x="1.98" y="3.25" width="3.12" height="2.47"/><rect class="cls-4" x="4.04" y="3.25" width="0.5" height="2.47"/><rect class="cls-3" x="1.15" y="5.75" width="3.94" height="8.23"/><rect class="cls-5" x="1.1" y="13.78" width="3.99" height="0.2"/><rect class="cls-4" x="4.04" y="5.75" width="0.5" height="8.23"/><rect class="cls-6" x="1" y="5.63" width="5.6" height="0.24"/><rect class="cls-6" x="1.83" y="3.13" width="4.77" height="0.24"/><rect class="cls-3" x="4.54" y="2.8" width="7.34" height="1.71"/><rect class="cls-3" x="4.54" y="5.9" width="7.34" height="8.08"/><rect class="cls-7" x="6.18" y="5.38" width="4.06" height="6.46" transform="translate(16.82 0.4) rotate(90)"/><rect class="cls-7" x="1.54" y="6.15" width="1.3" height="1.52" transform="translate(9.1 4.72) rotate(90)"/><rect class="cls-7" x="1.54" y="7.66" width="1.3" height="1.52" transform="translate(10.61 6.23) rotate(90)"/><rect class="cls-7" x="1.54" y="9.17" width="1.3" height="1.52" transform="translate(12.12 7.74) rotate(90)"/><rect class="cls-7" x="1.54" y="10.68" width="1.3" height="1.52" transform="translate(13.63 9.25) rotate(90)"/><rect class="cls-7" x="1.54" y="12.2" width="1.3" height="1.52" transform="translate(15.14 10.76) rotate(90)"/><rect class="cls-7" x="3.22" y="6.15" width="1.3" height="1.52" transform="translate(10.78 3.04) rotate(90)"/><rect class="cls-7" x="1.8" y="4" width="1.3" height="0.71" transform="translate(6.81 1.91) rotate(90)"/><rect class="cls-7" x="2.69" y="4" width="1.3" height="0.71" transform="translate(7.7 1.02) rotate(90)"/><rect class="cls-7" x="3.56" y="4" width="1.3" height="0.71" transform="translate(8.57 0.15) rotate(90)"/><rect class="cls-7" x="3.22" y="7.66" width="1.3" height="1.52" transform="translate(12.29 4.55) rotate(90)"/><rect class="cls-7" x="3.22" y="9.17" width="1.3" height="1.52" transform="translate(13.8 6.06) rotate(90)"/><rect class="cls-7" x="3.22" y="10.68" width="1.3" height="1.52" transform="translate(15.31 7.57) rotate(90)"/><rect class="cls-7" x="3.22" y="12.2" width="1.3" height="1.52" transform="translate(16.82 9.08) rotate(90)"/><rect class="cls-2" x="7.21" y="11.95" width="2.11" height="2.05"/><rect class="cls-6" x="2.07" y="4.96" width="0.75" height="0.07"/><rect class="cls-6" x="2.96" y="4.96" width="0.75" height="0.07"/><rect class="cls-6" x="3.84" y="4.96" width="0.75" height="0.07"/><polygon class="cls-8" points="2.16 13.54 1.29 13.54 2.29 6.26 3.17 6.26 2.16 13.54"/><rect class="cls-3" x="1.15" y="6.26" width="0.28" height="7.4"/><polygon class="cls-8" points="3.28 13.54 2.79 13.54 3.8 6.26 4.29 6.26 3.28 13.54"/><rect class="cls-6" x="3.09" y="7.49" width="1.55" height="0.07"/><rect class="cls-6" x="1.41" y="9" width="1.55" height="0.07"/><rect class="cls-6" x="3.09" y="9" width="1.55" height="0.07"/><rect class="cls-6" x="1.41" y="10.52" width="1.55" height="0.07"/><rect class="cls-6" x="3.09" y="10.52" width="1.55" height="0.07"/><rect class="cls-6" x="1.41" y="12.03" width="1.55" height="0.07"/><rect class="cls-6" x="3.09" y="12.03" width="1.55" height="0.07"/><rect class="cls-6" x="4.98" y="10.64" width="6.58" height="0.07"/><rect class="cls-6" x="1.41" y="13.54" width="1.55" height="0.07"/><rect class="cls-6" x="3.09" y="13.54" width="1.55" height="0.07"/><rect class="cls-6" x="1.41" y="7.49" width="1.55" height="0.07"/><rect class="cls-3" x="2.95" y="6.25" width="0.16" height="7.41"/><rect class="cls-3" x="1.38" y="12.09" width="3.27" height="0.21"/><rect class="cls-3" x="1.38" y="10.58" width="3.27" height="0.21"/><rect class="cls-3" x="1.38" y="9.07" width="3.27" height="0.21"/><rect class="cls-3" x="1.38" y="7.56" width="3.27" height="0.21"/><polygon class="cls-8" points="2.43 4.96 2.2 4.96 2.46 3.71 2.69 3.71 2.43 4.96"/><polygon class="cls-8" points="3.35 4.96 3.2 4.96 3.46 3.71 3.62 3.71 3.35 4.96"/><polygon class="cls-8" points="4.02 4.96 3.9 4.96 4.16 3.71 4.28 3.71 4.02 4.96"/><rect class="cls-3" x="10.9" y="3.25" width="3.12" height="2.47" transform="translate(24.93 8.97) rotate(-180)"/><rect class="cls-4" x="11.46" y="3.25" width="0.5" height="2.47" transform="translate(23.42 8.97) rotate(-180)"/><rect class="cls-3" x="10.9" y="5.75" width="3.94" height="8.23" transform="translate(25.75 19.73) rotate(-180)"/><rect class="cls-5" x="10.9" y="13.78" width="3.99" height="0.2" transform="translate(25.8 27.76) rotate(-180)"/><rect class="cls-4" x="11.46" y="5.75" width="0.5" height="8.23" transform="translate(23.42 19.73) rotate(-180)"/><rect class="cls-6" x="9.4" y="5.63" width="5.6" height="0.24" transform="translate(24.4 11.51) rotate(-180)"/><rect class="cls-6" x="9.4" y="3.13" width="4.77" height="0.24" transform="translate(23.56 6.5) rotate(-180)"/><rect class="cls-7" x="13.16" y="6.15" width="1.3" height="1.52" transform="translate(20.72 -6.9) rotate(90)"/><rect class="cls-7" x="13.16" y="7.66" width="1.3" height="1.52" transform="translate(22.23 -5.39) rotate(90)"/><rect class="cls-7" x="13.16" y="9.17" width="1.3" height="1.52" transform="translate(23.74 -3.88) rotate(90)"/><rect class="cls-7" x="13.16" y="10.68" width="1.3" height="1.52" transform="translate(25.25 -2.37) rotate(90)"/><rect class="cls-7" x="13.16" y="12.2" width="1.3" height="1.52" transform="translate(26.76 -0.86) rotate(90)"/><rect class="cls-7" x="11.48" y="6.15" width="1.3" height="1.52" transform="translate(19.04 -5.22) rotate(90)"/><rect class="cls-7" x="12.9" y="4" width="1.3" height="0.71" transform="translate(17.91 -9.19) rotate(90)"/><rect class="cls-7" x="12.01" y="4" width="1.3" height="0.71" transform="translate(17.02 -8.3) rotate(90)"/><rect class="cls-7" x="11.14" y="4" width="1.3" height="0.71" transform="translate(16.15 -7.43) rotate(90)"/><rect class="cls-7" x="11.48" y="7.66" width="1.3" height="1.52" transform="translate(20.55 -3.71) rotate(90)"/><rect class="cls-7" x="11.48" y="9.17" width="1.3" height="1.52" transform="translate(22.06 -2.2) rotate(90)"/><rect class="cls-7" x="11.48" y="10.68" width="1.3" height="1.52" transform="translate(23.57 -0.69) rotate(90)"/><rect class="cls-7" x="11.48" y="12.2" width="1.3" height="1.52" transform="translate(25.08 0.82) rotate(90)"/><rect class="cls-6" x="13.18" y="4.96" width="0.75" height="0.07" transform="translate(27.11 9.99) rotate(-180)"/><rect class="cls-6" x="12.29" y="4.96" width="0.75" height="0.07" transform="translate(25.32 9.99) rotate(-180)"/><rect class="cls-6" x="11.41" y="4.96" width="0.75" height="0.07" transform="translate(23.58 9.99) rotate(-180)"/><polygon class="cls-8" points="13.84 13.54 14.71 13.54 13.71 6.26 12.83 6.26 13.84 13.54"/><rect class="cls-3" x="14.57" y="6.26" width="0.28" height="7.4" transform="translate(29.42 19.92) rotate(-180)"/><polygon class="cls-8" points="12.72 13.54 13.21 13.54 12.2 6.26 11.71 6.26 12.72 13.54"/><rect class="cls-6" x="11.35" y="7.49" width="1.55" height="0.07" transform="translate(24.26 15.05) rotate(-180)"/><rect class="cls-6" x="13.03" y="9" width="1.55" height="0.07" transform="translate(27.62 18.08) rotate(-180)"/><rect class="cls-6" x="11.35" y="9" width="1.55" height="0.07" transform="translate(24.26 18.08) rotate(-180)"/><rect class="cls-6" x="13.03" y="10.52" width="1.55" height="0.07" transform="translate(27.62 21.1) rotate(-180)"/><rect class="cls-6" x="11.35" y="10.52" width="1.55" height="0.07" transform="translate(24.26 21.1) rotate(-180)"/><rect class="cls-6" x="13.03" y="12.03" width="1.55" height="0.07" transform="translate(27.62 24.12) rotate(-180)"/><rect class="cls-6" x="11.35" y="12.03" width="1.55" height="0.07" transform="translate(24.26 24.12) rotate(-180)"/><rect class="cls-6" x="13.03" y="13.54" width="1.55" height="0.07" transform="translate(27.62 27.14) rotate(-180)"/><rect class="cls-6" x="11.35" y="13.54" width="1.55" height="0.07" transform="translate(24.26 27.14) rotate(-180)"/><rect class="cls-6" x="13.03" y="7.49" width="1.55" height="0.07" transform="translate(27.62 15.05) rotate(-180)"/><rect class="cls-3" x="12.89" y="6.25" width="0.16" height="7.41" transform="translate(25.94 19.91) rotate(-180)"/><rect class="cls-3" x="11.35" y="12.09" width="3.27" height="0.21" transform="translate(25.98 24.4) rotate(-180)"/><rect class="cls-3" x="11.35" y="10.58" width="3.27" height="0.21" transform="translate(25.98 21.37) rotate(-180)"/><rect class="cls-3" x="11.35" y="9.07" width="3.27" height="0.21" transform="translate(25.98 18.35) rotate(-180)"/><rect class="cls-3" x="11.35" y="7.56" width="3.27" height="0.21" transform="translate(25.98 15.33) rotate(-180)"/><polygon class="cls-8" points="13.57 4.96 13.8 4.96 13.54 3.71 13.31 3.71 13.57 4.96"/><polygon class="cls-8" points="12.64 4.96 12.8 4.96 12.54 3.71 12.38 3.71 12.64 4.96"/><polygon class="cls-8" points="11.98 4.96 12.1 4.96 11.84 3.71 11.72 3.71 11.98 4.96"/><polygon class="cls-8" points="13.01 4.96 12.7 4.96 13.06 3.71 13.37 3.71 13.01 4.96"/><rect class="cls-4" x="4.54" y="2.8" width="7.34" height="0.57"/><rect class="cls-6" x="4.38" y="2.69" width="7.66" height="0.24"/><rect class="cls-6" x="5.01" y="2" width="2.76" height="0.24"/><rect class="cls-6" x="4.83" y="11.36" width="6.76" height="0.59"/><rect class="cls-5" x="8.25" y="11.95" width="0.02" height="2.05"/><rect class="cls-5" x="11.06" y="11.95" width="0.38" height="2.03"/><rect class="cls-5" x="4.98" y="11.95" width="0.38" height="2.03"/><rect class="cls-7" x="7" y="12.42" width="1.48" height="0.75" transform="translate(20.54 5.06) rotate(90)"/><rect class="cls-7" x="8.04" y="12.42" width="1.48" height="0.75" transform="translate(21.58 4.02) rotate(90)"/><polygon class="cls-9" points="7.76 13.54 7.43 13.54 7.69 12.06 8.02 12.06 7.76 13.54"/><polygon class="cls-9" points="8.82 13.54 8.49 13.54 8.75 12.06 9.08 12.06 8.82 13.54"/><polygon class="cls-8" points="6.3 10.64 5.4 10.64 6.41 6.58 7.31 6.58 6.3 10.64"/><polygon class="cls-8" points="10.28 10.64 8.57 10.64 9.58 6.58 11.29 6.58 10.28 10.64"/><rect class="cls-3" x="6.55" y="6.53" width="0.06" height="4.31"/><rect class="cls-3" x="9.83" y="6.53" width="0.06" height="4.31"/><rect class="cls-3" x="8.17" y="6.53" width="0.06" height="4.31"/><rect class="cls-3" x="7.93" y="5.57" width="0.03" height="6.1" transform="translate(16.56 0.67) rotate(90)"/><rect class="cls-3" x="11.94" y="10.16" width="0.55" height="3.57"/><path class="cls-10" d="M9.37,8.68A1.15,1.15,0,1,1,8.22,7.53,1.15,1.15,0,0,1,9.37,8.68Z"/><circle class="cls-10" cx="8.21" cy="8.67" r="1.04"/><rect class="cls-2" x="7.7" y="2.3" width="4.18" height="0.07"/><rect class="cls-4" x="11.88" y="5.87" width="0.5" height="8.06" transform="translate(24.27 19.81) rotate(180)"/><rect class="cls-3" x="5" y="4" width="6" height="2"/><rect class="cls-11" x="5.01" y="3.56" width="0.48" height="0.18"/><rect class="cls-11" x="4.63" y="3.84" width="0.48" height="0.18"/><rect class="cls-11" x="4.93" y="4.14" width="0.49" height="0.15"/><rect class="cls-11" x="5.25" y="3.86" width="0.47" height="0.15"/><rect class="cls-11" x="8.24" y="4.16" width="0.39" height="0.14"/><rect class="cls-11" x="8.49" y="3.93" width="0.39" height="0.14"/><rect class="cls-11" x="6.26" y="12.44" width="0.39" height="0.14"/><rect class="cls-11" x="6.51" y="12.21" width="0.39" height="0.14"/><rect class="cls-11" x="10.36" y="12.37" width="0.39" height="0.14"/><rect class="cls-11" x="10.55" y="12.62" width="0.39" height="0.14"/><rect class="cls-11" x="10.32" y="3.63" width="0.48" height="0.18" transform="translate(21.11 7.43) rotate(180)"/><rect class="cls-11" x="11.72" y="4.11" width="0.16" height="0.18" transform="translate(23.6 8.41) rotate(180)"/><rect class="cls-11" x="11.55" y="3.82" width="0.33" height="0.18" transform="translate(23.44 7.82) rotate(180)"/><rect class="cls-11" x="10.55" y="3.87" width="0.48" height="0.18" transform="translate(21.58 7.91) rotate(180)"/><rect class="cls-11" x="7.02" y="3.93" width="0.48" height="0.18" transform="translate(14.52 8.04) rotate(180)"/><rect class="cls-11" x="6.74" y="3.65" width="0.48" height="0.18" transform="translate(13.95 7.49) rotate(180)"/><rect class="cls-11" x="10.38" y="4.14" width="0.49" height="0.15" transform="translate(21.25 8.44) rotate(180)"/><rect class="cls-11" x="9.58" y="13.01" width="0.48" height="0.18" transform="translate(19.64 26.21) rotate(180)"/><rect class="cls-11" x="9.82" y="13.25" width="0.48" height="0.18" transform="translate(20.11 26.69) rotate(180)"/><rect class="cls-11" x="9.65" y="13.53" width="0.49" height="0.15" transform="translate(19.78 27.22) rotate(180)"/><rect class="cls-11" x="5.97" y="13.05" width="0.48" height="0.18"/><rect class="cls-11" x="5.73" y="13.29" width="0.48" height="0.18"/><rect class="cls-11" x="5.89" y="13.57" width="0.49" height="0.15"/><rect class="cls-11" x="9.99" y="3.9" width="0.47" height="0.15" transform="translate(20.45 7.95) rotate(180)"/><path class="cls-12" d="M8,8.93H8c0-.06.11-.11.16-.16l0,0h0l.14.19.22.3a.07.07,0,0,1,0,0V9.5h-.7V9s0,0,0,0H7.37V8.33h.48s0,0,0,0V7.83H8V8.92Z"/><path class="cls-13" d="M8.08,8.69h0V7.83h.48V8.3s0,0,0,0h.49V9H8.58s0,0,0,0v0l0,0-.27-.37s0,0,0,0l.14-.14.07-.07H8.34l-.23.24Z"/><rect class="cls-10" x="4.95" y="4.79" width="6.04" height="1.6"/><text class="cls-14" transform="translate(5.38 5.83)">RSUD KAWALI</text></g></g></svg>